<?xml version="1.0" encoding="utf-8"?>
<!-- Generator: Adobe Illustrator 22.0.1, SVG Export Plug-In . SVG Version: 6.00 Build 0)  -->
<svg version="1.1" id="Laag_1" xmlns="http://www.w3.org/2000/svg" xmlns:xlink="http://www.w3.org/1999/xlink" x="0px" y="0px"
	 viewBox="0 0 1100.8 405" style="enable-background:new 0 0 1100.8 405;" xml:space="preserve">
<style type="text/css">
	.st0{fill:#393C41;}
	.st1{fill:#D7AD46;}
</style>
<g>
	<g>
		<path class="st0" d="M460.5,41.1c0,14-3.2,24.2-9.6,30.8c-6.4,6.6-15.9,9.8-28.4,9.8h-9.6v56h-9.1V2.1h18.5
			c13.2,0,22.9,3.1,29,9.4S460.5,27.6,460.5,41.1z M412.9,73.4h9.1c10.6,0,18.2-2.5,22.6-7.5c4.5-5,6.7-13.3,6.7-24.8
			c0-10.9-2.3-18.8-6.9-23.5c-4.6-4.7-11.7-7.1-21.4-7.1h-10.1V73.4z"/>
		<path class="st0" d="M491.6,137.7V2.1h9.1V129h38.2v8.7H491.6z"/>
		<path class="st0" d="M618.7,137.7l-12-49.2h-32.9L562,137.7h-9.5L585.2,2.1h9.4l33.4,135.6H618.7z M604.6,79.4l-12-50.5
			c-1.2-5.7-2.2-11.1-2.9-16.1c-0.6,5.4-1.4,10.8-2.6,16.1l-11.6,50.5H604.6z"/>
		<path class="st0" d="M691,8.7c-10.2,0-18.3,5.4-24.3,16.2c-6,10.8-9,25.7-9,44.8c0,12.4,1.4,23.2,4.2,32.5
			c2.8,9.2,6.8,16.3,12,21.2c5.2,4.9,11.2,7.4,18.1,7.4c7.1,0,13.1-1.3,18.2-3.8v8.3c-4.8,2.8-11.2,4.2-19,4.2
			c-8.6,0-16.1-2.8-22.6-8.3c-6.5-5.6-11.5-13.6-15-24.2c-3.5-10.5-5.3-23-5.3-37.5c0-21.6,3.8-38.6,11.5-51S677.9,0,691.2,0
			c8.3,0,15.5,1.9,21.7,5.8l-4.2,8C703.5,10.4,697.6,8.7,691,8.7z"/>
		<path class="st0" d="M791.5,137.7h-49.2V2.1h49.2v8.7h-40.1v51.5h37.8V71h-37.8v58h40.1V137.7z"/>
		<path class="st0" d="M893.4,137.7h-9.1V10.9h-27V2.1h63.1v8.7h-27V137.7z"/>
		<path class="st0" d="M1012.1,137.7h-9.1V71h-47.3v66.7h-9.1V2.1h9.1v60.2h47.3V2.1h9.1V137.7z"/>
		<path class="st0" d="M1100.8,137.7h-49.2V2.1h49.2v8.7h-40.1v51.5h37.8V71h-37.8v58h40.1V137.7z"/>
		<path class="st0" d="M452,323.9l-25.4-113.8h-1c1.2,8.8,1.7,16.8,1.7,24.1v89.7h-23V190.2h38.2l22.8,105h0.7l22.7-105h38.8v133.6
			h-23.6v-90.6c0-7.5,0.4-15.2,1.3-23h-0.7l-25.3,113.6H452z"/>
		<path class="st0" d="M648.6,256.9c0,22.1-4.1,39.1-12.4,51c-8.3,11.9-20.1,17.8-35.6,17.8c-15.5,0-27.4-5.9-35.6-17.8
			c-8.3-11.9-12.4-28.9-12.4-51.2c0-22.1,4.1-39.1,12.4-50.9c8.3-11.8,20.2-17.7,35.8-17.7c15.4,0,27.2,5.9,35.5,17.8
			C644.5,217.8,648.6,234.8,648.6,256.9z M578,256.9c0,15.2,1.9,26.8,5.8,34.8c3.8,8,9.5,12,16.9,12c15,0,22.5-15.6,22.5-46.8
			c0-31.2-7.4-46.8-22.3-46.8c-7.6,0-13.3,4-17.1,11.9C579.9,230,578,241.6,578,256.9z"/>
		<path class="st0" d="M721.4,323.9L696,210.1h-1c1.2,8.8,1.7,16.8,1.7,24.1v89.7h-23V190.2h38.2l22.9,105h0.7l22.7-105h38.8v133.6
			h-23.6v-90.6c0-7.5,0.4-15.2,1.3-23h-0.7l-25.3,113.6H721.4z"/>
		<path class="st0" d="M886.3,323.9h-60.2V190.2h60.2v21.5H851v31.8h32.8v21.6H851v37h35.4V323.9z"/>
		<path class="st0" d="M1005,323.9h-30.3l-41.3-96.8h-1.2c1.5,7.4,2.3,15.3,2.3,23.8v73h-23V190.2H942l40.9,95.8h1
			c-1.2-6.4-1.7-14-1.7-22.9v-72.9h22.8V323.9z"/>
		<path class="st0" d="M1075.3,323.9h-24.8V212.1h-25.6v-21.8h75.9v21.8h-25.6V323.9z"/>
	</g>
	<path class="st1" d="M326.4,165.3c0,78.9-55.9,144.7-130.3,159.9L162.2,405l-33.7-80.2C55,308.9,0,243.6,0,165.3
		C0,75.2,73.1,2.1,163.2,2.1S326.4,75.2,326.4,165.3z M163.2,103.2c-34.3,0-62.2,27.8-62.2,62.2s27.8,62.2,62.2,62.2
		s62.2-27.8,62.2-62.2S197.5,103.2,163.2,103.2z"/>
</g>
</svg>
